<?xml version="1.0" encoding="utf-8"?>
<!-- Generator: Adobe Illustrator 21.1.0, SVG Export Plug-In . SVG Version: 6.00 Build 0)  -->
<svg version="1.1" id="Layer_1" xmlns="http://www.w3.org/2000/svg" xmlns:xlink="http://www.w3.org/1999/xlink" x="0px" y="0px"
	 viewBox="0 0 426.7 426.7" style="enable-background:new 0 0 426.7 426.7;" xml:space="preserve">
<style type="text/css">
	.st0{fill:#C8C8C8;}
</style>
<g>
	<polygon class="st0" points="426.5,137.6 375,137.6 375,51.5 288.8,51.5 288.8,0.1 426.5,0.1 	"/>
	<polygon class="st0" points="307,155.8 270.5,119.4 382.5,7.6 418.9,44 	"/>
	<path class="st0" d="M209.6,354.3c-76,0-137.7-61.7-137.7-137.6S133.7,79.1,209.6,79.1s137.7,61.7,137.7,137.6
		S285.5,354.3,209.6,354.3z M209.6,130.6c-47.5,0-86.2,38.6-86.2,86.1s38.7,86.1,86.2,86.1s86.2-38.6,86.2-86.1
		S257.1,130.6,209.6,130.6z"/>
	<polygon class="st0" points="36.3,426.7 -0.2,390.3 111.8,278.5 148.2,314.9 	"/>
	<polygon class="st0" points="111.8,426.7 -0.2,314.9 36.2,278.5 148.2,390.3 	"/>
</g>
</svg>
