<?xml version="1.0" encoding="utf-8"?>
<!-- Generator: Adobe Illustrator 21.0.2, SVG Export Plug-In . SVG Version: 6.00 Build 0)  -->
<svg version="1.1" id="Layer_1" xmlns="http://www.w3.org/2000/svg" xmlns:xlink="http://www.w3.org/1999/xlink" x="0px" y="0px"
	 viewBox="0 0 426.7 426.7" style="enable-background:new 0 0 426.7 426.7;" xml:space="preserve">
<style type="text/css">
	.st0{fill:#50C8EF;}
	.st1{fill:#F05228;}
</style>
<g>
	<polygon class="st0" points="426.5,137.6 375,137.6 375,51.5 288.8,51.5 288.8,0.1 426.5,0.1 	"/>
	<polygon class="st0" points="307,155.8 270.5,119.4 382.5,7.6 418.9,44 	"/>
	<path class="st1" d="M209.6,354.3c-76,0-137.7-61.7-137.7-137.6c0-75.9,61.8-137.6,137.7-137.6c75.9,0,137.7,61.7,137.7,137.6
		C347.3,292.6,285.5,354.3,209.6,354.3z M209.6,130.6c-47.5,0-86.2,38.6-86.2,86.1c0,47.5,38.7,86.1,86.2,86.1
		c47.5,0,86.2-38.6,86.2-86.1C295.8,169.2,257.1,130.6,209.6,130.6z"/>
	<polygon class="st1" points="36.3,426.7 -0.2,390.3 111.8,278.5 148.2,314.9 	"/>
	<polygon class="st1" points="111.8,426.7 -0.2,314.9 36.2,278.5 148.2,390.3 	"/>
</g>
</svg>
