<?xml version="1.0" encoding="utf-8"?>
<!-- Generator: Adobe Illustrator 21.1.0, SVG Export Plug-In . SVG Version: 6.00 Build 0)  -->
<svg version="1.1" id="Layer_1" xmlns="http://www.w3.org/2000/svg" xmlns:xlink="http://www.w3.org/1999/xlink" x="0px" y="0px"
	 viewBox="0 0 426.7 426.7" style="enable-background:new 0 0 426.7 426.7;" xml:space="preserve">
<style type="text/css">
	.st0{fill:#C8C8C8;}
</style>
<path class="st0" d="M213.3,25.2C95.5,25.2,0,101.3,0,195.2c0,40,17.6,75.4,46.2,105.7c11.5,12.2,17.3,29.6,17.3,47.7
	c0,20.6-8.4,39.3-22,52.9c33.3-5.2,61.7-25.5,77.9-53.6c28.3,11.1,60.2,17.3,93.9,17.3c117.8,0,213.3-76.1,213.3-170
	C426.7,101.3,331.1,25.2,213.3,25.2z M151.6,210.2c-8.4,0-15.1-6.8-15.1-15.1c0-8.3,6.7-15,15.1-15c8.3,0,15.1,6.8,15.1,15
	C166.6,203.4,159.8,210.2,151.6,210.2z M213.3,210.2c-8.3,0-15.1-6.8-15.1-15.1c0-8.3,6.8-15,15.1-15c8.3,0,15.1,6.8,15.1,15
	C228.4,203.4,221.6,210.2,213.3,210.2z M275.1,210.2c-8.3,0-15.1-6.8-15.1-15.1c0-8.3,6.8-15,15.1-15c8.3,0,15.1,6.8,15.1,15
	C290.2,203.4,283.4,210.2,275.1,210.2z"/>
</svg>
